<svg aria-hidden="true" style="position: absolute; width: 0; height: 0; overflow: hidden;" version="1.1" xmlns="http://www.w3.org/2000/svg" xmlns:xlink="http://www.w3.org/1999/xlink">
<defs>
<symbol id="icon-arrow-right-up" viewBox="0 0 32 32">
<path stroke-linejoin="round" stroke-linecap="round" stroke-miterlimit="10" stroke-width="1.7143" d="M12.569 7.985h11.446v11.446"></path>
<path stroke-linejoin="round" stroke-linecap="round" stroke-miterlimit="10" stroke-width="1.7143" d="M7.987 24.012l15.868-15.867"></path>
</symbol>
<symbol id="icon-ranking" viewBox="0 0 32 32">
<path stroke-linejoin="round" stroke-linecap="round" stroke-miterlimit="10" stroke-width="2" d="M11.56 18.667h-6.227c-1.467 0-2.667 1.2-2.667 2.667v8h8.893v-10.667z"></path>
<path stroke-linejoin="round" stroke-linecap="round" stroke-miterlimit="10" stroke-width="2" d="M17.774 13.333h-3.56c-1.467 0-2.667 1.2-2.667 2.667v13.333h8.893v-13.333c0-1.467-1.187-2.667-2.667-2.667z"></path>
<path stroke-linejoin="round" stroke-linecap="round" stroke-miterlimit="10" stroke-width="2" d="M26.667 22.667h-6.227v6.667h8.893v-4c0-1.467-1.2-2.667-2.667-2.667z"></path>
<path stroke-linejoin="round" stroke-linecap="round" stroke-miterlimit="4" stroke-width="2" d="M16.693 2.76l0.707 1.413c0.093 0.2 0.347 0.387 0.56 0.413l1.28 0.213c0.813 0.133 1.013 0.733 0.427 1.307l-1 1c-0.173 0.173-0.267 0.493-0.213 0.72l0.28 1.227c0.227 0.973-0.293 1.347-1.147 0.84l-1.2-0.707c-0.213-0.133-0.573-0.133-0.787 0l-1.2 0.707c-0.853 0.507-1.373 0.133-1.147-0.84l0.28-1.227c0.053-0.227-0.040-0.56-0.213-0.72l-0.987-0.987c-0.587-0.587-0.4-1.173 0.427-1.307l1.28-0.213c0.213-0.040 0.467-0.227 0.56-0.413l0.707-1.413c0.387-0.773 1-0.773 1.387-0.013z"></path>
</symbol>
<symbol id="icon-cpu-charge" viewBox="0 0 32 32">
<path stroke-linejoin="round" stroke-linecap="round" stroke-miterlimit="4" stroke-width="2" d="M12.8 26.667h6.4c5.333 0 7.467-2.133 7.467-7.467v-6.4c0-5.333-2.133-7.467-7.467-7.467h-6.4c-5.333 0-7.467 2.133-7.467 7.467v6.4c0 5.333 2.133 7.467 7.467 7.467z"></path>
<path stroke-linejoin="round" stroke-linecap="round" stroke-miterlimit="4" stroke-width="2" d="M14 22.667h4c3.333 0 4.667-1.333 4.667-4.667v-4c0-3.333-1.333-4.667-4.667-4.667h-4c-3.333 0-4.667 1.333-4.667 4.667v4c0 3.333 1.333 4.667 4.667 4.667z"></path>
<path stroke-linejoin="round" stroke-linecap="round" stroke-miterlimit="4" stroke-width="2" d="M10.68 5.333v-2.667"></path>
<path stroke-linejoin="round" stroke-linecap="round" stroke-miterlimit="4" stroke-width="2" d="M16 5.333v-2.667"></path>
<path stroke-linejoin="round" stroke-linecap="round" stroke-miterlimit="4" stroke-width="2" d="M21.333 5.333v-2.667"></path>
<path stroke-linejoin="round" stroke-linecap="round" stroke-miterlimit="4" stroke-width="2" d="M26.667 10.667h2.667"></path>
<path stroke-linejoin="round" stroke-linecap="round" stroke-miterlimit="4" stroke-width="2" d="M26.667 16h2.667"></path>
<path stroke-linejoin="round" stroke-linecap="round" stroke-miterlimit="4" stroke-width="2" d="M26.667 21.333h2.667"></path>
<path stroke-linejoin="round" stroke-linecap="round" stroke-miterlimit="4" stroke-width="2" d="M21.333 26.667v2.667"></path>
<path stroke-linejoin="round" stroke-linecap="round" stroke-miterlimit="4" stroke-width="2" d="M16.013 26.667v2.667"></path>
<path stroke-linejoin="round" stroke-linecap="round" stroke-miterlimit="4" stroke-width="2" d="M10.68 26.667v2.667"></path>
<path stroke-linejoin="round" stroke-linecap="round" stroke-miterlimit="4" stroke-width="2" d="M2.667 10.667h2.667"></path>
<path stroke-linejoin="round" stroke-linecap="round" stroke-miterlimit="4" stroke-width="2" d="M2.667 16h2.667"></path>
<path stroke-linejoin="round" stroke-linecap="round" stroke-miterlimit="4" stroke-width="2" d="M2.667 21.333h2.667"></path>
<path stroke-linejoin="round" stroke-linecap="round" stroke-miterlimit="4" stroke-width="2" d="M16 12.933l-1.253 2.187c-0.28 0.48-0.053 0.88 0.507 0.88h1.493c0.56 0 0.787 0.4 0.507 0.88l-1.253 2.187"></path>
</symbol>
<symbol id="icon-global-edit" viewBox="0 0 32 32">
<path stroke-linejoin="round" stroke-linecap="round" stroke-miterlimit="4" stroke-width="2" d="M29.333 16c0-7.36-5.973-13.333-13.333-13.333s-13.333 5.973-13.333 13.333c0 7.36 5.973 13.333 13.333 13.333"></path>
<path stroke-linejoin="round" stroke-linecap="round" stroke-miterlimit="4" stroke-width="2" d="M10.666 4h1.333c-2.6 7.787-2.6 16.213 0 24h-1.333"></path>
<path stroke-linejoin="round" stroke-linecap="round" stroke-miterlimit="4" stroke-width="2" d="M20 4c1.293 3.893 1.947 7.947 1.947 12"></path>
<path stroke-linejoin="round" stroke-linecap="round" stroke-miterlimit="4" stroke-width="2" d="M4 21.333v-1.333c3.893 1.293 7.947 1.947 12 1.947"></path>
<path stroke-linejoin="round" stroke-linecap="round" stroke-miterlimit="4" stroke-width="2" d="M4 12c7.787-2.6 16.213-2.6 24 0"></path>
<path stroke-linejoin="round" stroke-linecap="round" stroke-miterlimit="10" stroke-width="2" d="M25.614 20.987l-4.72 4.72c-0.187 0.187-0.36 0.533-0.4 0.787l-0.253 1.8c-0.093 0.653 0.36 1.107 1.013 1.013l1.8-0.253c0.253-0.040 0.613-0.213 0.787-0.4l4.72-4.72c0.813-0.813 1.2-1.76 0-2.96-1.187-1.187-2.133-0.8-2.947 0.013z"></path>
<path stroke-linejoin="round" stroke-linecap="round" stroke-miterlimit="10" stroke-width="2" d="M24.934 21.667c0.4 1.44 1.52 2.56 2.96 2.96"></path>
</symbol>
<symbol id="icon-maximize-circle" viewBox="0 0 32 32">
<path stroke-linejoin="round" stroke-linecap="round" stroke-miterlimit="4" stroke-width="2" d="M22.667 4h5.333v5.333"></path>
<path stroke-linejoin="round" stroke-linecap="round" stroke-miterlimit="4" stroke-width="2" d="M20 12l8-8"></path>
<path stroke-linejoin="round" stroke-linecap="round" stroke-miterlimit="4" stroke-width="2" d="M9.333 28h-5.333v-5.333"></path>
<path stroke-linejoin="round" stroke-linecap="round" stroke-miterlimit="4" stroke-width="2" d="M12 20l-8 8"></path>
<path stroke-linejoin="round" stroke-linecap="round" stroke-miterlimit="4" stroke-width="2" d="M18.693 2.933c-0.867-0.173-1.773-0.267-2.693-0.267-7.36 0-13.333 5.973-13.333 13.333 0 0.92 0.093 1.813 0.267 2.667"></path>
<path stroke-linejoin="round" stroke-linecap="round" stroke-miterlimit="4" stroke-width="2" d="M13.307 29.067c0.867 0.173 1.773 0.267 2.693 0.267 7.36 0 13.333-5.973 13.333-13.333 0-0.907-0.093-1.8-0.267-2.667"></path>
</symbol>
<symbol id="icon-arrow-up" viewBox="0 0 32 32">
<path stroke-linejoin="round" stroke-linecap="round" stroke-miterlimit="10" stroke-width="2" d="M7.906 12.76l8.093-8.093 8.093 8.093"></path>
<path stroke-linejoin="round" stroke-linecap="round" stroke-miterlimit="10" stroke-width="2" d="M16 27.333v-22.44"></path>
</symbol>
<symbol id="icon-instagram" viewBox="0 0 32 32">
<path stroke-linejoin="round" stroke-linecap="round" stroke-miterlimit="4" stroke-width="2" d="M12 29.333h8c6.667 0 9.333-2.667 9.333-9.333v-8c0-6.667-2.667-9.333-9.333-9.333h-8c-6.667 0-9.333 2.667-9.333 9.333v8c0 6.667 2.667 9.333 9.333 9.333z"></path>
<path stroke-linejoin="round" stroke-linecap="round" stroke-miterlimit="4" stroke-width="2" d="M16 20.667c2.577 0 4.667-2.089 4.667-4.667s-2.089-4.667-4.667-4.667c-2.577 0-4.667 2.089-4.667 4.667s2.089 4.667 4.667 4.667z"></path>
<path stroke-linejoin="round" stroke-linecap="round" stroke-miterlimit="4" stroke-width="2.6667" d="M23.515 9.333h0.015"></path>
</symbol>
<symbol id="icon-facebook" viewBox="0 0 32 32">
<path d="M18.667 12.4v3.867h3.467c0.267 0 0.4 0.267 0.4 0.533l-0.533 2.533c0 0.133-0.267 0.267-0.4 0.267h-2.933v9.733h-4v-9.6h-2.267c-0.267 0-0.4-0.133-0.4-0.4v-2.533c0-0.267 0.133-0.4 0.4-0.4h2.267v-4.4c0-2.267 1.733-4 4-4h3.6c0.267 0 0.4 0.133 0.4 0.4v3.2c0 0.267-0.133 0.4-0.4 0.4h-3.2c-0.267 0-0.4 0.133-0.4 0.4z"></path>
<path fill="none" stroke="#173d33" style="stroke: var(--color1, #173d33)" stroke-linejoin="round" stroke-linecap="round" stroke-miterlimit="4" stroke-width="2" d="M20 29.333h-8c-6.667 0-9.333-2.667-9.333-9.333v-8c0-6.667 2.667-9.333 9.333-9.333h8c6.667 0 9.333 2.667 9.333 9.333v8c0 6.667-2.667 9.333-9.333 9.333z"></path>
</symbol>
<symbol id="icon-map" viewBox="0 0 32 32">
<path stroke-linejoin="round" stroke-linecap="round" stroke-miterlimit="4" stroke-width="2" d="M3.053 10.373v12.973c0 2.533 1.8 3.573 3.987 2.32l3.133-1.787c0.68-0.387 1.813-0.427 2.52-0.067l7 3.507c0.707 0.347 1.84 0.32 2.52-0.067l5.773-3.307c0.733-0.427 1.347-1.467 1.347-2.32v-12.973c0-2.533-1.8-3.573-3.987-2.32l-3.133 1.787c-0.68 0.387-1.813 0.427-2.52 0.067l-7-3.493c-0.707-0.347-1.84-0.32-2.52 0.067l-5.773 3.307c-0.747 0.427-1.347 1.467-1.347 2.307z"></path>
<path stroke-linejoin="round" stroke-linecap="round" stroke-miterlimit="4" stroke-width="2" d="M11.413 5.333v17.333"></path>
<path stroke-linejoin="round" stroke-linecap="round" stroke-miterlimit="4" stroke-width="2" d="M20.973 8.826v17.84"></path>
</symbol>
<symbol id="icon-sms" viewBox="0 0 32 32">
<path stroke-linejoin="round" stroke-linecap="round" stroke-miterlimit="10" stroke-width="2" d="M22.667 27.333h-13.333c-4 0-6.667-2-6.667-6.667v-9.333c0-4.667 2.667-6.667 6.667-6.667h13.333c4 0 6.667 2 6.667 6.667v9.333c0 4.667-2.667 6.667-6.667 6.667z"></path>
<path stroke-linejoin="round" stroke-linecap="round" stroke-miterlimit="10" stroke-width="2" d="M22.667 12l-4.173 3.333c-1.373 1.093-3.627 1.093-5 0l-4.16-3.333"></path>
</symbol>
<symbol id="icon-call" viewBox="0 0 32 32">
<path stroke-linejoin="miter" stroke-linecap="butt" stroke-miterlimit="10" stroke-width="2" d="M29.293 24.44c0 0.48-0.107 0.973-0.333 1.453s-0.52 0.933-0.907 1.36c-0.653 0.72-1.373 1.24-2.187 1.573-0.8 0.333-1.667 0.507-2.6 0.507-1.36 0-2.813-0.32-4.347-0.973s-3.067-1.533-4.587-2.64c-1.533-1.12-2.987-2.36-4.373-3.733-1.373-1.387-2.613-2.84-3.72-4.36-1.093-1.52-1.973-3.040-2.613-4.547-0.64-1.52-0.96-2.973-0.96-4.36 0-0.907 0.16-1.773 0.48-2.573 0.32-0.813 0.827-1.56 1.533-2.227 0.853-0.84 1.787-1.253 2.773-1.253 0.373 0 0.747 0.080 1.080 0.24 0.347 0.16 0.653 0.4 0.893 0.747l3.093 4.36c0.24 0.333 0.413 0.64 0.533 0.933 0.12 0.28 0.187 0.56 0.187 0.813 0 0.32-0.093 0.64-0.28 0.947-0.173 0.307-0.427 0.627-0.747 0.947l-1.013 1.053c-0.147 0.147-0.213 0.32-0.213 0.533 0 0.107 0.013 0.2 0.040 0.307 0.040 0.107 0.080 0.187 0.107 0.267 0.24 0.44 0.653 1.013 1.24 1.707 0.6 0.693 1.24 1.4 1.933 2.107 0.72 0.707 1.413 1.36 2.12 1.96 0.693 0.587 1.267 0.987 1.72 1.227 0.067 0.027 0.147 0.067 0.24 0.107 0.107 0.040 0.213 0.053 0.333 0.053 0.227 0 0.4-0.080 0.547-0.227l1.013-1c0.333-0.333 0.653-0.587 0.96-0.747 0.307-0.187 0.613-0.28 0.947-0.28 0.253 0 0.52 0.053 0.813 0.173s0.6 0.293 0.933 0.52l4.413 3.133c0.347 0.24 0.587 0.52 0.733 0.853 0.133 0.333 0.213 0.667 0.213 1.040z"></path>
</symbol>
<symbol id="icon-add" viewBox="0 0 32 32">
<path fill="none" stroke="#97d28b" style="stroke: var(--color2, #97d28b)" stroke-linejoin="round" stroke-linecap="round" stroke-miterlimit="4" stroke-width="3" d="M8 16h16"></path>
<path fill="none" stroke="#97d28b" style="stroke: var(--color2, #97d28b)" stroke-linejoin="round" stroke-linecap="round" stroke-miterlimit="4" stroke-width="3" d="M16 24v-16"></path>
</symbol>
<symbol id="icon-minus" viewBox="0 0 32 32">
<path stroke-linejoin="round" stroke-linecap="round" stroke-miterlimit="4" stroke-width="3" d="M8 16h16"></path>
</symbol>
<symbol id="icon-logo" viewBox="0 0 32 32">
<path fill="#173d33" style="fill: var(--color1, #173d33)" d="M22.018 19.932c-0.067-0.158-5.564-10.901-5.654-11.049-0.19-0.448-0.472-0.853-0.827-1.19s-0.778-0.597-1.24-0.765-0.955-0.241-1.447-0.213c-0.492 0.028-0.973 0.156-1.412 0.375s-0.829 0.526-1.143 0.9c-0.314 0.374-0.547 0.809-0.683 1.275s-0.174 0.957-0.11 1.438c0.064 0.482 0.228 0.945 0.482 1.362 0.067 0.158 5.329 10.441 5.419 10.589 0.067 0.159 0.146 0.313 0.236 0.46 0.19 0.448 0.472 0.853 0.827 1.19s0.778 0.597 1.24 0.765 0.955 0.241 1.447 0.213c0.492-0.028 0.973-0.156 1.412-0.375s0.829-0.526 1.143-0.9 0.547-0.809 0.683-1.275c0.136-0.467 0.174-0.957 0.11-1.438s-0.228-0.945-0.482-1.362z"></path>
<path fill="#97d28b" style="fill: var(--color2, #97d28b)" d="M15.669 12.663c0.337-0.354 0.596-0.773 0.762-1.231s0.234-0.944 0.2-1.428c-0.034-0.485-0.168-0.957-0.395-1.388s-0.542-0.811-0.924-1.117c-0.383-0.306-0.825-0.531-1.3-0.66s-0.971-0.161-1.459-0.093c-0.488 0.068-0.956 0.235-1.375 0.489s-0.781 0.592-1.063 0.99c-0.118 0.124-9.045 10.973-9.144 11.113-0.337 0.354-0.596 0.773-0.762 1.231s-0.234 0.944-0.2 1.428 0.168 0.957 0.395 1.388c0.227 0.431 0.542 0.811 0.924 1.117s0.825 0.531 1.3 0.66c0.475 0.13 0.971 0.161 1.459 0.093s0.956-0.235 1.375-0.489c0.42-0.254 0.781-0.591 1.063-0.99 0.118-0.124 9.045-10.973 9.144-11.113z"></path>
<path fill="#97d28b" style="fill: var(--color2, #97d28b)" d="M31.029 12.662c0.337-0.354 0.596-0.773 0.762-1.231s0.234-0.944 0.2-1.428c-0.033-0.485-0.168-0.957-0.395-1.388s-0.542-0.811-0.924-1.117c-0.383-0.306-0.825-0.531-1.3-0.66s-0.971-0.161-1.459-0.093c-0.488 0.068-0.956 0.235-1.375 0.489s-0.781 0.592-1.063 0.99c-0.118 0.124-9.045 10.973-9.144 11.113-0.337 0.354-0.596 0.773-0.762 1.231s-0.234 0.944-0.2 1.428c0.033 0.485 0.168 0.957 0.395 1.388s0.542 0.811 0.924 1.117c0.383 0.306 0.825 0.53 1.3 0.66s0.971 0.161 1.459 0.093c0.488-0.068 0.956-0.235 1.375-0.489s0.781-0.591 1.063-0.99c0.118-0.124 9.045-10.973 9.144-11.113z"></path>
</symbol>
<symbol id="icon-close-light" viewBox="0 0 32 32">
<path fill="none" stroke="#fff" style="stroke: var(--color3, #fff)" stroke-linejoin="round" stroke-linecap="round" stroke-miterlimit="4" stroke-width="2.4" d="M9.333 9.333l13.333 13.333M9.333 22.667l13.333-13.333"></path>
</symbol>
<symbol id="icon-arrow-left-big" viewBox="0 0 32 32">
<path stroke-linejoin="round" stroke-linecap="round" stroke-miterlimit="10" stroke-width="1.3333" d="M12.759 7.905l-8.093 8.093 8.093 8.093"></path>
<path stroke-linejoin="round" stroke-linecap="round" stroke-miterlimit="10" stroke-width="1.3333" d="M27.332 15.999h-22.44"></path>
</symbol>
<symbol id="icon-arrow-right" viewBox="0 0 32 32">
<path stroke-linejoin="round" stroke-linecap="round" stroke-miterlimit="10" stroke-width="1.8824" d="M19.050 8.382l7.617 7.617-7.617 7.617"></path>
<path stroke-linejoin="round" stroke-linecap="round" stroke-miterlimit="10" stroke-width="1.8824" d="M5.333 16h21.12"></path>
</symbol>
<symbol id="icon-arrow-right-big" viewBox="0 0 32 32">
<path stroke-linejoin="round" stroke-linecap="round" stroke-miterlimit="10" stroke-width="1.3333" d="M19.241 7.905l8.093 8.093-8.093 8.093"></path>
<path stroke-linejoin="round" stroke-linecap="round" stroke-miterlimit="10" stroke-width="1.3333" d="M4.668 15.999h22.44"></path>
</symbol>
<symbol id="icon-menu" viewBox="0 0 32 32">
<path stroke-linejoin="miter" stroke-linecap="round" stroke-miterlimit="4" stroke-width="1.8824" d="M4.706 9.726h22.588"></path>
<path stroke-linejoin="miter" stroke-linecap="round" stroke-miterlimit="4" stroke-width="1.8824" d="M4.706 16h22.588"></path>
<path stroke-linejoin="miter" stroke-linecap="round" stroke-miterlimit="4" stroke-width="1.8824" d="M4.706 22.274h22.588"></path>
</symbol>
</defs>
</svg>
